<?xml version="1.0" standalone="no"?><!DOCTYPE svg PUBLIC "-//W3C//DTD SVG 1.1//EN" "http://www.w3.org/Graphics/SVG/1.1/DTD/svg11.dtd"><svg t="1547463486959" class="icon" style="" viewBox="0 0 1024 1024" version="1.1" xmlns="http://www.w3.org/2000/svg" p-id="4983" xmlns:xlink="http://www.w3.org/1999/xlink" width="200" height="200"><defs><style type="text/css"></style></defs><path d="M898.2 785.4c-18-113-102.2-204.7-212.8-236.6 58-31.2 97.5-93 97.5-164.3 0-102.7-82.1-185.9-183.4-185.9s-183.4 83.2-183.4 185.9c0 71.1 39.4 132.8 97.2 164.1-110.9 31.8-195.2 123.7-213.2 236.8-3.8 23.8 15.1 45.3 39.9 45.3h518.3c24.8 0 43.7-21.5 39.9-45.3zM347.9 538.6c0.6-7.6-3.6-14.9-10.5-18.2-51.2-24.6-84.2-77.7-84.2-135.2 0-82.4 65.7-149.5 146.4-149.5 10.3 0 18.6-8.3 18.6-18.6s-8.3-18.6-18.6-18.6c-101.2 0-183.6 83.8-183.6 186.7 0 58.2 27.3 112.9 71.8 147.8-84.6 39-146 119.2-160.4 213.1-1.6 10.2 5.4 19.6 15.5 21.2 0.9 0.1 1.9 0.2 2.8 0.2 9 0 16.9-6.5 18.3-15.7 14.2-92.8 81.2-170 170.7-196.9 7.4-2.2 12.6-8.7 13.2-16.3z" p-id="4984"></path></svg>